<svg viewBox="0 0 822.6 256" version="1.1" xmlns="http://www.w3.org/2000/svg" id="Layer_1">
  
  <defs>
    <style>
      .st0 {
        font-family: Poppins-SemiBold, Poppins;
        font-size: 62.19px;
        font-weight: 600;
      }

      .st0, .st1 {
        fill: #eeba2d;
      }
    </style>
  </defs>
  <g>
    <path d="M222.31,237.09c1.15,1.24,1.13,5.47-.96,5.86-3.49-.07-6.93.41-10.43.3-35.92-1.1-53.29-34.4-60.59-65.23-3.53-14.89-4.08-30.67-10.47-44.69-7.6-16.68-20.23-25.92-38.98-25.75-1.47.01-6.07.97-7.01-.2-1.07-1.33-1.43-4.3.4-5.22,1.5-.76,8.09-2.16,9.91-2.31,4.2-.36,9.96.65,13.88-.14,1.51-.3,4.9-2.07,6.33-2.91,34.26-19.92,21.64-71.3-18.13-73.29-3.64-.18-13.6.7-16.25-.45-1.49-.65-3.55-4.15-1.48-5.06l38.32-.17c17.95,1.94,32.83,13.93,38.38,31.09,7.78,24.06-5.61,49-29.28,56.75-.89.51-.61,1.13,0,1.75,1.62,1.63,4.64,3.34,6.54,5.09,27.93,25.63,19.99,70.51,39.05,101.39,6.79,11,16.35,15.65,28.33,19.37,2.2.68,11.37,2.68,12.43,3.82Z" class="st1"></path>
    <path d="M121.32,210.46c-.43-3.09-.36-6.27-.32-9.41.23-15.73,2.47-40.72-3.26-55.15-1.91-4.8-5.8-8.99-11.34-6.55-7.15,3.14-15.58,25.12-19.12,32.46-10.62,21.97-24.09,42.32-47.46,52.12-3.6,1.51-10.69,4.16-14.45,4.35-1.45.07-1.7-.49-.46-1.37,2.35-1.68,6.31-3.28,9.02-4.99,16.64-10.57,28.14-25.42,37.94-42.26,7.26-12.47,18.3-38.12,31.06-44.68,2.91-1.5,5.6-1.94,8.81-2.37.44-1.94-2.29-4.57-4.15-4.3-1.22.17-5.88,2.81-7.11,3.62-5.71,3.75-10.68,10.26-14.58,15.83-4.25,6.07-7.65,12.81-12.28,18.58,0-1.16.66-2.41,1.14-3.48,4.26-9.58,17.65-30.38,27.49-34.23,1.47-.57,5.71-.76,4-2.82-1.28-1.54-3.76-2.7-5.74-2.2-6.9,1.73-15.74,12.4-19.8,18.07-18.07,25.2-30.13,63.31-67.77,63.45-.45,0-2.3-.03-2.23-.76.34-.83,6.59-2.36,7.9-2.83,16.86-5.99,27.6-15.42,37.66-30.02,10.33-14.98,19.69-36.97,34.66-47.63,1.53-1.09,7.4-3.78,1.03-3.76-8.11.02-17.81,6.25-23.58,11.63-14.78,13.79-24.73,40.05-47.24,43.4-2.04.3-3.3.43-3.77-1.94-.58-2.99,1.66-2.22,3.75-2.84,9.9-2.97,17.39-8.77,24-16.55.71-.84,6.72-8.37,6.11-8.95-.6-.13-.8.13-1.2.43-2.81,2.06-5.67,5.68-8.33,8.07-5.72,5.12-12.12,9.85-19.62,11.99-1.6.45-4.93,1.64-6.19.4-.74-.73-1.66-4.25-1.05-5.18.25-.38,7.35-2.2,8.67-2.74,11.22-4.56,19.16-15.15,28.03-22.96,17.54-15.45,43.53-30.87,63.22-9.25,16.17,17.75,12.33,53.29,8.89,75.4-.38,2.45-.81,6.03-1.53,8.31-.14.44-.29,1-.81,1.13Z" class="st1"></path>
    <path d="M45.14,93.58c-10.99-1.24-17.08-13.1-13.27-23.11,1.32-3.47,8-10.54,12.02-9.33.4.12,4.85,5.19,5.87,6.05,3.49,2.94,11.94,6.29,16.47,5.76,8.67-1.02,25.56-9.91,30.77-16.97.55-.75,2.35-4.3,3-4.15.57.13.95,2.29,1.01,2.87.97,8.82-6.43,11.68-3.39,21.28.53,1.69,3.13,5.25.46,6.12-1.18.39-2.5-.16-2.93,1.54-.4,1.58-.21,2.48-1.31,4.06-.58.83-1.29,1.06-1.74,1.62-2.51,3.06-1.2,7.04-7.46,5.9-2.28-.42-8.97-4.48-10.42-3.6-2.6,4.43-.7,10.76,2.69,14.31.6.63,3.85,2.57,3.28,3.43-2.03.5-4.29.33-6.33.68-12.46,2.09-21.35,10.35-34.37,1.42-1.21-.83-3.75-2.24-1.74-3.55,9.6-3.96,20.11-9.22,25.87-18.25,2.37-3.72,4.41-9.48,2.41-13.69-1.33,3.35-2.32,6.71-4.17,9.84-1.64,2.78-8.29,10.21-11.17,11.19-2.34.79.87-2.49-.01-3.44-1.77-.14-3.79.19-5.52,0Z" class="st1"></path>
    <path d="M57.81,63.76c7.91,2.62,13.16-2.96,19.57-5.92,4.66-2.15,9.96-3.4,14.99-1.8.82,1.18-2.88,3.27-3.76,3.79-11.64,6.89-28.81,15.35-40.2,3.34-5.52-5.83-4.12-11.86.2-17.99,7.73-10.96,22.36-14.19,34.61-9.37,4.49,1.77,12.83,7.25,14.09,12.15.43,1.69.13,4.77-1.73,5.45-.74.27-5.18-1.42-6.63-1.57-13.28-1.3-16.57,6.15-26.69,9.98-.48.18-5.15.99-4.46,1.94Z" class="st1"></path>
    <path d="M28,143.07c5.76-3.74,10.63-8.78,16.12-12.94,9.45-7.17,20.63-14.29,32.47-16.27-1.34,1.27-3.45,1.54-5.06,2.24-8.48,3.65-15.76,8.52-22.67,14.6-8.52,7.5-17.9,19.37-28.62,23.26-1.76.64-6.23,2.43-7.17.32-.78-1.74-1.47-7.18-1.73-9.3-1.6-13.11-1.55-27.68,12.62-33.21,1.23-.48,5.14-1.88,6.24-1.78,1.53.15,5.29,3.98,6.94,5.01,5.28,3.32,7.87,2.96,13.68,3.62,3.39.38-2.75,3.66-3.54,4.24-6.21,4.63-14.45,12.18-18.58,18.69-.18.28-.94,1.25-.71,1.53Z" class="st1"></path>
    <path d="M109.68,145.77l-3.11,51.27c-.55-.63-.63-1.73-.74-2.54-.9-6.62-.79-13.32-.89-19.99-.11-7.27-1.08-19.02,1.72-25.68.54-1.29,1.37-3.39,3.02-3.06Z" class="st1"></path>
    <path d="M25.02,183.32c3.34-2.45,7.09-4.23,10.41-6.73,14.29-10.78,20.92-24.66,31.64-38.13.44-.55,5.78-7.01,6.25-6.42.11.53-.17.83-.4,1.24-1.12,1.97-3.51,4.44-4.91,6.42-8.71,12.31-16.51,27.08-28.54,36.46-4.15,3.24-9.13,6.46-14.45,7.16Z" class="st1"></path>
    <path d="M112.67,183.92c-1.18-.61-.31-2.11-.28-3.12.23-8.84.89-17.66.6-26.56-.02-.65-.84-4.83-.15-4.91,1.81.06,2.53,2.37,3.05,3.81,1.75,4.93.72,11.67-.02,16.83-.68,4.72-1.69,9.44-3.19,13.96Z" class="st1"></path>
  </g>
  <g>
    <path d="M626.92,63.26v42.82c0,1.61,1.08,6.08,1.69,7.76,3.4,9.37,16.17,10.07,23.88,5.72,5.74-3.24,13.84-13.01,13.84-19.79v-28.11l14.73,5.08-.03,72.41c-2.4,34.48-62.28,37.22-76.93,11.79-9.12-15.83,12.41-27.45,25.86-26.64l8.52,11.96c-6.26-.04-23.34,3.33-26.8,8.67-5.44,8.4,10.12,16.93,17.08,17.6,12.48,1.21,25.8-1.69,33.88-11.83,1.56-1.95,4.74-7.65,4.74-9.97v-32.32c-3.46,3.77-8.05,5.31-13.02,6.16-13.57,2.31-30.86.26-38.18-13.02-.51-.93-2.4-5.29-2.4-6.01v-42.3h13.14Z" class="st1"></path>
    <path d="M414.64,130.52c-.59.6-11.57-5.74-13.16-6.66.19-18.89-.17-37.79,0-56.68.01-1.24.55-2.39.57-3.63.13-10-1.03-20.02-3.44-29.7l15.39,9.83c1.44,5.68.47,11.46.62,17.24.03,1.24.54,2.39.57,3.63.13,6.04-.14,12.11-.02,18.15,3.67-3.05,7.04-6.69,11.37-8.86,11.67-5.85,25.69-1.62,33.2,8.68,12.4,17.01,7.9,37.09-9.09,48.51l-11.31-6.31c3.16-4.72,8.02-8.55,11.16-13.27,11.39-17.11,3.7-44.23-20.44-29.9-4.93,2.93-15.41,12.74-15.41,18.74v30.21Z" class="st1"></path>
    <path d="M531.81,130.52c-.44.43-10.33-3.33-11.04-3.94-.79-.68-.27-2.26-1.32-2.89-13.23,8.05-35.06,10.85-45.71-2.62-10.35-13.09,6.19-26.33,17.9-29.92,8.92-2.74,20.61-2.68,28.6,2.59.22-4.98.65-6.84-3.42-9.97-6.14-4.71-18.6-2.54-25.74-.55-3.35.93-10.58,4.62-13.12,4.76-1.54.08-.86-4.07-.3-5.04,1.08-1.88,9.93-7.86,12.16-8.85,5.39-2.41,17.44-3.46,23.32-2.93,18.91,1.69,18.16,17.26,18.68,32.29.31,9-.27,18.08-.02,27.08ZM501.77,99.11c-5.83.06-12.39,2.11-17.2,5.44-3.19,2.21-11.45,10.13-8.47,14.15,4.94,6.67,23.74,2.29,30.32-.71,3.43-1.57,14.44-7.72,13.85-11.88-.6-4.21-14.84-7.04-18.5-7Z" class="st1"></path>
    <path d="M748.29,131.04c-3.42-2.4-11.28-2.52-11.56-7.36-3.77,1.18-7.21,3.68-11.14,4.88-10.29,3.12-24.08,2.84-32.47-4.61-14.38-12.77.58-27.77,13.92-32.33,7.52-2.57,17.61-3.24,25.1-.39,1.85.7,3.3,1.92,5.12,2.5.54-5.29-.2-7.96-4.77-10.72-6.49-3.93-19.43-1.47-26.5.73-3.15.98-8.27,3.86-11.04,4.2-1.07.13-.67-.03-.77-.76-.13-.96-.18-3.74.27-4.48.15-.25,3.92-3.47,4.5-3.91,8.8-6.68,21.22-8.75,32.13-7.51,14.71,1.67,16.57,12.06,17.24,24.79.6,11.46-.49,23.45-.03,34.96ZM736.05,104.41c-.71-.78-3.82-2.22-4.95-2.66-10.95-4.27-22.86-3.16-31.94,4.59-3.86,3.29-11.05,11.01-3.75,14.29,8.83,3.96,23.59-.14,31.71-4.72,3.15-1.78,12.77-7.3,8.94-11.49Z" class="st1"></path>
    <path d="M815.03,130.52c-.37.4-9.69-3.33-10.2-3.71-1.17-.87-.52-2.29-1.63-3.11-9.46,5.25-19.41,8.05-30.31,6.15-13.11-2.28-25.15-14.41-14.87-27.17,10.35-12.85,31.66-17.58,45.98-8.93.52-5.29.04-8.04-4.65-10.85-6.2-3.71-19.84-1.29-26.63.85-2.88.91-8.48,4.1-11.01,4.24-1.33.07-.93-3.17-.79-3.95.45-2.37,10.5-9.09,13-10.12,5.94-2.43,17.54-3.33,23.89-2.62,13.39,1.51,16.52,10.03,17.24,22.16.72,12.09-.58,24.9-.02,37.06ZM785.51,99.11c-8.34.08-17.03,3.83-22.49,10.14-4.02,4.65-6.85,9.7,1.03,12.08,7.97,2.4,20.53-.48,27.88-4.19,2.83-1.43,12.27-7.17,12.06-10.49-.31-4.81-14.59-7.58-18.48-7.54Z" class="st1"></path>
    <path d="M264.09,20.17c6.12.96,13.76,7.46,16.49,12.94,6.62,13.32.7,27.5-12.01,34.09,14.73,12.23,12.37,32.39,19.18,48.6,3.34,7.95,6.66,10.77,14.69,13.69,3.28,1.19,11.37,1.37,8.94,6.8-.59,1.33-1.85,1.5-3.11,1.62-21.27,2.07-32.27-15.62-36.72-33.75-2.99-12.16-3.29-33.45-20.06-35.11-2.43-.24-7.76.99-8.92-1.59-3.2-7.18,11.26-5.17,14.46-6.01,1.04-.27,2.99-1.68,3.91-2.39,13.61-10.56,7.1-31.64-9.98-33.08-2.61-.22-7.47.58-9.59-.4-1.8-.82-2.47-4.09-.91-5.39h23.65Z" class="st1"></path>
    <path d="M552.83,81.65c11.22-9.3,24.83-15.42,38.53-6.74,18.03,11.43,16.89,35.8,5.73,51.78-.65.93-4.36,5.97-4.85,6.23-.65.35-.88.03-1.41-.17-3.66-1.41-8.2-6.17-12.25-7.49-.21-.77.21-.87.51-1.32,3.37-4.89,9.13-8.67,12.37-14.43,4.78-8.49,6.82-27.07-3.95-31.8-18.4-8.08-35.21,14.73-35.21,31v23.38l-11.56-6.04v-52.02l.79-.79h11.3v8.41Z" class="st1"></path>
    <path d="M364.19,38.56v15.24h8.41v8.41h-8.41v58.59c0,1.54,2.93,4.99,4.71,5.31,9.5,1.74,11.78-14.91,11.05-21.34l14.22,7.65c-4.5,14.51-25.67,24.93-37.55,12.78-1.22-1.25-5.05-7.17-5.05-8.62v-54.38h-8.14l-.79-.79v-7.62h8.14l.79-.79v-22.86l12.61,8.41Z" class="st1"></path>
    <polygon points="334.77 131.57 322.68 125 322.68 71.41 323.47 70.62 333.98 70.62 334.77 71.41 334.77 131.57" class="st1"></polygon>
    <path d="M326.75,41.84c9.89-1.98,10.22,13.39.44,11.94-6.55-.97-6.38-10.75-.44-11.94Z" class="st1"></path>
  </g>
  <text transform="translate(311.82 236.68)" class="st0"><tspan y="0" x="0">SILKS &amp; SAREES</tspan></text>
</svg>