<?xml version="1.0" standalone="no"?>
<!DOCTYPE svg PUBLIC "-//W3C//DTD SVG 20010904//EN"
 "http://www.w3.org/TR/2001/REC-SVG-20010904/DTD/svg10.dtd">
<svg version="1.0" xmlns="http://www.w3.org/2000/svg"
 width="1973.000000pt" height="1034.000000pt" viewBox="0 0 1973.000000 1034.000000"
 preserveAspectRatio="xMidYMid meet">

<g transform="translate(0.000000,1034.000000) scale(0.100000,-0.100000)"
fill="#000000" stroke="none">
<path d="M0 5170 l0 -5170 9865 0 9865 0 0 5170 0 5170 -9865 0 -9865 0 0
-5170z m10058 4870 l72 -63 0 -88 0 -89 49 0 c44 0 50 -3 53 -22 2 -15 11 -24
26 -26 14 -2 22 -10 22 -23 0 -12 7 -19 20 -19 15 0 20 -7 20 -25 0 -16 6 -25
15 -25 8 0 15 -9 15 -20 0 -11 7 -20 15 -20 9 0 15 -9 15 -25 0 -14 5 -25 10
-25 6 0 10 -9 10 -20 0 -11 5 -20 10 -20 6 0 10 -11 10 -25 0 -24 -2 -25 -65
-25 l-65 0 0 -70 0 -70 80 0 80 0 0 -120 0 -120 125 0 125 0 0 -150 0 -150
-60 0 -60 0 0 -165 0 -165 60 0 59 0 3 -112 3 -113 148 -3 147 -3 0 -159 0
-160 -110 0 -110 0 0 -50 0 -50 280 0 c231 0 287 -3 318 -15 95 -40 147 -147
121 -252 -17 -65 -91 -140 -148 -149 l-41 -7 0 -362 0 -363 148 -3 c132 -4
151 -6 184 -27 96 -59 112 -190 34 -268 -44 -44 -89 -54 -238 -54 l-128 0 0
-60 c0 -33 -3 -60 -7 -60 -5 0 -28 6 -53 14 l-45 13 -3 552 -2 551 -125 0
-125 0 -2 -67 -2 -68 -3 68 -4 67 -1114 0 -1115 0 0 -547 0 -548 -53 -21 -52
-22 -3 34 -3 34 -147 0 c-131 0 -151 2 -181 21 -47 28 -68 56 -81 107 -20 80
18 158 94 193 33 15 66 19 179 19 l137 0 -2 397 -3 396 -38 11 c-169 49 -204
278 -59 381 l44 30 299 3 299 3 0 49 0 50 -115 0 -115 0 0 160 0 159 148 3
147 3 3 113 3 112 69 0 70 0 0 165 0 165 -70 0 -70 0 0 150 0 150 125 0 125 0
0 120 0 120 80 0 80 0 0 70 0 70 -65 0 c-63 0 -65 1 -65 25 0 14 5 25 10 25 6
0 10 9 10 20 0 11 5 20 10 20 6 0 10 11 10 25 0 16 6 25 15 25 8 0 15 8 15 19
0 10 9 21 19 24 14 3 18 11 14 26 -4 17 -1 21 21 21 19 0 26 5 26 20 0 13 7
20 20 20 15 0 20 7 20 25 0 23 3 25 53 25 l52 0 -2 87 -2 88 82 82 c80 81 82
82 102 65 11 -10 53 -47 93 -82z m-1058 -2835 c11 -13 10 -14 -4 -9 -9 3 -16
1 -16 -5 0 -6 5 -11 10 -11 6 0 10 -4 10 -10 0 -15 -17 -12 -24 5 -5 13 1 45
9 45 1 0 8 -7 15 -15z m1952 -151 c2 -36 -1 -61 -7 -61 -6 0 -8 34 -6 91 5 91
8 84 13 -30z m-1017 66 c19 -19 35 -40 35 -47 0 -10 10 -6 33 10 83 63 166 75
228 34 47 -31 82 -101 73 -149 l-6 -38 49 0 c91 -1 162 -50 182 -127 15 -56 1
-110 -38 -147 l-29 -28 34 -31 c121 -105 84 -288 -61 -305 l-43 -4 5 -52 c11
-106 -33 -181 -120 -205 -53 -15 -107 -3 -143 30 -19 17 -24 19 -24 7 0 -27
-78 -105 -122 -123 -82 -32 -175 10 -204 93 l-17 48 -41 -14 c-54 -18 -139
-11 -173 14 -65 49 -89 127 -60 196 l15 36 -54 27 c-30 15 -67 43 -82 62 -23
31 -27 46 -27 99 0 72 20 108 74 136 45 23 45 22 23 65 -45 89 -37 169 23 222
34 29 95 53 118 46 57 -17 64 -15 71 17 11 57 47 118 85 144 31 22 45 25 98
22 55 -4 67 -8 98 -38z m-940 -110 c3 -5 1 -10 -4 -10 -6 0 -11 5 -11 10 0 6
2 10 4 10 3 0 8 -4 11 -10z m3 -40 c-7 -10 -14 -17 -17 -15 -4 4 18 35 25 35
2 0 -1 -9 -8 -20z m1957 -85 c0 -54 -4 -92 -10 -92 -6 0 -10 38 -10 92 0 54 4
92 10 92 6 0 10 -38 10 -92z m0 -189 c0 -45 3 -88 6 -96 3 -8 4 -12 2 -7 -8
13 -21 8 -25 -10 -2 -9 -3 30 -3 88 0 64 4 106 10 106 6 0 10 -34 10 -81z
m-1955 70 c0 -3 -4 -8 -10 -11 -5 -3 -10 -1 -10 4 0 6 5 11 10 11 6 0 10 -2
10 -4z m10 -165 c0 -4 -7 -8 -15 -8 -16 0 -20 9 -9 20 8 8 24 -1 24 -12z m52
-81 c16 0 17 -3 7 -22 -18 -33 -40 -47 -74 -48 -36 0 -70 22 -78 50 -4 15 0
20 13 20 10 0 28 9 41 19 23 19 24 19 48 0 13 -10 32 -19 43 -19z m1948 0 c28
0 25 -25 -6 -49 -36 -28 -79 -27 -109 4 -30 29 -32 45 -6 45 10 0 29 8 41 18
23 18 24 18 42 0 10 -10 27 -18 38 -18z m-1855 -330 c337 -105 550 -447 491
-788 -28 -163 -95 -290 -209 -399 -258 -247 -653 -264 -933 -42 -106 84 -181
193 -231 335 -24 70 -27 94 -28 209 0 109 4 142 23 205 40 126 88 206 182 301
72 73 100 93 180 132 52 25 127 53 165 61 98 22 267 15 360 -14z m2045 -16
c88 -20 213 -83 283 -141 207 -173 300 -448 238 -707 -57 -238 -233 -431 -466
-513 -73 -25 -92 -27 -225 -27 -136 0 -150 2 -227 30 -117 44 -187 89 -275
176 -129 130 -200 301 -201 488 -1 155 33 269 120 402 88 134 245 246 405 288
92 24 256 26 348 4z m-891 -459 c-10 -30 -19 -61 -19 -70 0 -13 -37 -15 -295
-15 l-295 0 -6 28 c-3 15 -12 46 -19 70 l-14 42 334 0 333 0 -19 -55z m-27
-345 l5 -30 -299 0 c-315 0 -309 -1 -292 44 5 14 41 16 294 16 l288 0 4 -30z
m-1088 -1486 c183 -47 327 -198 365 -382 15 -74 13 -195 -4 -271 -42 -178
-180 -321 -350 -366 -74 -19 -242 -20 -311 -1 -214 57 -358 241 -371 476 -7
108 8 186 52 278 62 130 180 229 316 266 73 20 226 20 303 0z m4010 1 c32 -8
80 -25 107 -36 l49 -21 0 -124 0 -124 -42 0 c-24 0 -49 4 -56 8 -7 5 -18 36
-24 69 -11 61 -11 61 -54 72 -66 17 -164 14 -204 -7 -22 -10 -42 -32 -54 -55
-16 -34 -17 -44 -7 -78 14 -47 43 -67 151 -105 139 -48 236 -100 268 -145 55
-74 65 -179 27 -291 -22 -64 -73 -118 -147 -159 -62 -33 -65 -34 -198 -36
-113 -2 -149 1 -220 20 l-85 22 0 135 0 135 43 3 c24 2 49 -2 56 -8 8 -5 19
-37 25 -69 11 -58 12 -59 56 -70 62 -16 189 -14 230 3 65 28 95 119 60 186
-18 35 -63 60 -165 90 -208 61 -291 146 -290 297 1 106 36 178 116 240 80 60
231 81 358 48z m3360 0 c32 -8 80 -25 107 -36 l49 -21 0 -124 0 -124 -44 0
c-57 0 -72 16 -80 84 -9 65 -11 66 -126 73 -102 6 -149 -9 -180 -59 -24 -39
-25 -69 -6 -107 20 -39 48 -54 164 -95 172 -60 232 -99 275 -181 31 -61 29
-182 -4 -255 -36 -77 -68 -111 -141 -151 -62 -33 -65 -34 -198 -36 -113 -2
-149 1 -220 20 l-85 22 -3 138 -3 137 40 0 c69 0 70 -2 95 -111 5 -21 15 -29
50 -38 70 -17 195 -14 236 7 62 30 89 122 54 182 -22 37 -50 52 -179 95 -163
54 -212 88 -251 170 -32 67 -33 179 -3 245 35 77 106 139 192 166 58 18 191
17 261 -1z m-13192 -22 c14 -16 136 -172 273 -348 136 -176 251 -324 256 -329
5 -5 7 119 6 275 l-2 284 -49 12 c-59 15 -66 23 -66 86 l0 47 200 0 200 0 0
-47 c0 -62 -6 -69 -63 -83 l-47 -12 0 -444 0 -444 -68 0 c-39 0 -75 5 -84 13
-15 11 -67 76 -406 512 -69 88 -129 164 -133 170 -6 5 -8 -110 -7 -275 l3
-284 50 -10 50 -11 3 -58 3 -57 -196 0 -196 0 3 57 3 58 45 9 c25 5 48 14 52
20 4 6 8 176 8 378 l0 367 -37 7 c-64 11 -71 18 -75 79 l-3 55 126 0 c124 0
126 0 151 -27z m1758 -422 l175 -444 48 -14 47 -14 0 -54 0 -55 -190 0 -191 0
3 57 c3 57 3 57 41 66 20 5 37 14 36 20 0 7 -10 39 -23 72 l-23 60 -201 3
-200 2 -20 -52 c-36 -98 -36 -93 5 -104 38 -9 38 -9 41 -66 l3 -58 -191 0
-190 0 0 49 c0 54 10 68 59 77 17 4 36 15 42 26 7 14 219 548 340 856 8 22 13
23 111 20 l103 -3 175 -444z m510 404 c0 -49 -25 -85 -58 -85 -10 0 -21 -2
-24 -5 -3 -3 39 -124 94 -268 56 -144 111 -293 123 -331 l23 -69 16 56 c9 31
63 180 121 333 58 152 105 278 105 280 0 2 -9 4 -21 4 -45 0 -59 17 -59 75 l0
55 195 0 195 0 0 -55 c0 -60 -7 -67 -70 -79 l-35 -6 -84 -213 c-47 -116 -127
-317 -179 -444 l-94 -233 -92 0 -92 0 -179 445 -180 446 -38 6 c-53 8 -67 26
-67 84 l0 49 200 0 200 0 0 -45z m1404 -395 c94 -239 174 -440 178 -446 4 -6
22 -14 39 -18 49 -9 59 -23 59 -77 l0 -49 -189 0 -189 0 -4 33 c-7 59 4 81 45
90 42 10 42 6 5 105 l-20 52 -200 -2 -201 -3 -23 -60 c-30 -78 -30 -82 9 -90
41 -9 47 -19 47 -77 l0 -48 -190 0 -190 0 0 49 c0 54 9 65 60 78 l35 9 175
447 175 447 104 -2 103 -3 172 -435z m1356 385 c0 -60 -7 -67 -72 -79 l-37 -7
-3 -332 c-3 -319 -4 -334 -25 -380 -34 -72 -75 -120 -135 -152 -45 -25 -67
-30 -145 -33 -51 -3 -113 -1 -139 3 l-47 7 6 66 c4 36 11 70 16 75 5 5 50 10
99 11 86 1 92 3 121 30 17 17 36 46 42 65 7 22 14 153 16 338 l5 302 -39 7
c-67 12 -73 19 -73 79 l0 55 205 0 205 0 0 -55z m2000 -85 l0 -140 -54 0 c-53
0 -55 1 -65 33 -5 17 -11 43 -13 57 -3 24 -6 25 -91 28 l-87 3 2 -368 3 -367
40 -8 c50 -10 65 -30 65 -85 l0 -43 -210 0 -210 0 0 49 c0 55 10 67 66 79 l39
8 3 367 2 367 -88 0 -88 0 -10 -52 c-10 -60 -31 -77 -88 -70 l-36 4 0 139 0
139 410 0 410 0 0 -140z m530 99 c0 -58 -14 -77 -65 -90 l-45 -11 0 -149 0
-149 240 0 240 0 0 139 c0 149 -7 171 -51 171 -45 0 -59 18 -59 75 l0 55 205
0 205 0 0 -55 c0 -60 -6 -67 -72 -79 l-38 -7 0 -367 c0 -202 4 -372 8 -378 4
-6 27 -15 52 -20 l45 -9 3 -57 3 -57 -206 -3 -206 -3 3 60 3 59 42 11 c23 5
47 15 53 21 7 7 10 62 8 155 l-3 144 -238 3 -238 2 3 -157 3 -157 40 -8 c50
-10 65 -30 65 -85 l0 -43 -210 0 -210 0 0 49 c0 55 10 67 66 79 l39 8 3 377 2
377 -41 6 c-55 9 -69 26 -69 85 l0 49 210 0 210 0 0 -41z m1220 -4 c0 -51 -25
-85 -62 -85 -49 0 -48 7 -46 -390 l3 -374 40 -8 c50 -10 65 -30 65 -85 l0 -43
-210 0 -210 0 0 49 c0 55 10 67 66 79 l39 8 3 377 2 377 -41 6 c-55 9 -69 26
-69 85 l0 49 210 0 210 0 0 -45z m1810 -3 c0 -57 -16 -76 -73 -86 l-37 -7 2
-377 3 -376 39 -8 c56 -12 66 -24 66 -79 l0 -49 -210 0 -210 0 0 49 c0 55 10
67 66 79 l39 8 3 377 2 377 -41 6 c-55 9 -69 26 -69 85 l0 49 210 0 210 0 0
-48z m540 -1 c0 -59 -14 -76 -69 -85 l-41 -6 0 -365 0 -365 150 0 150 0 5 28
c19 90 16 87 73 90 l52 3 0 -140 0 -141 -370 0 -370 0 0 43 c0 56 11 70 62 82
l43 11 3 374 c2 397 3 390 -45 390 -38 0 -63 34 -63 85 l0 45 210 0 210 0 0
-49z m842 -7 c-4 -59 -10 -65 -74 -78 l-28 -6 0 -145 0 -145 39 0 c51 0 66 14
185 169 95 123 96 125 76 143 -15 14 -20 32 -20 68 l0 50 195 0 195 0 0 -44
c0 -67 -6 -74 -71 -88 l-58 -12 -107 -135 c-59 -75 -122 -152 -141 -172 l-33
-35 27 -21 c16 -11 87 -102 158 -201 l130 -180 55 -14 55 -14 3 -59 3 -60
-121 3 -121 3 -163 218 c-90 120 -172 221 -181 225 -9 3 -37 6 -61 6 l-45 0 3
-157 3 -156 45 -11 45 -11 3 -57 3 -58 -206 0 -205 0 0 49 c0 55 10 67 66 79
l39 8 3 376 2 377 -37 7 c-67 12 -73 19 -73 79 l0 55 208 0 207 0 -3 -56z
m1498 -1484 c0 -20 -7 -20 -6855 -20 -6848 0 -6855 0 -6855 20 0 20 7 20 6855
20 6848 0 6855 0 6855 -20z m-8547 -615 c34 -30 36 -48 3 -35 -19 7 -30 4 -51
-12 -53 -41 -167 -322 -190 -468 l-7 -45 32 50 c43 67 108 143 132 156 26 14
74 -5 81 -31 5 -20 -15 -149 -29 -185 -6 -18 -4 -17 21 5 34 31 32 24 -25 -78
-35 -64 -50 -81 -67 -82 -30 0 -30 31 -2 102 27 68 62 216 54 228 -12 19 -25
9 -80 -57 -46 -56 -124 -190 -147 -254 -5 -11 -10 -10 -28 7 l-22 22 22 103
c52 248 132 467 207 567 29 38 57 41 96 7z m1629 -6 l33 -31 -32 6 c-27 4 -36
0 -64 -32 -60 -68 -136 -262 -177 -451 l-20 -93 24 23 c27 26 32 11 8 -26 -9
-13 -22 -43 -28 -67 -15 -48 -23 -53 -50 -33 -19 14 -19 19 -7 91 7 42 11 77
9 80 -2 2 -21 -18 -41 -45 -48 -63 -132 -141 -152 -141 -8 0 -25 10 -36 21
-16 16 -20 29 -16 56 16 98 159 303 211 303 13 0 33 -11 46 -25 l23 -25 -35 0
c-29 0 -42 -7 -69 -37 -72 -82 -141 -225 -119 -247 12 -12 81 57 157 159 43
57 60 93 92 192 68 209 146 353 192 353 10 0 33 -14 51 -31z m1025 -14 c54
-32 56 -47 3 -39 -27 5 -45 2 -57 -7 -18 -15 -78 -139 -111 -231 l-21 -56 49
-7 c28 -4 50 -11 50 -15 0 -5 -25 -12 -55 -15 -38 -5 -59 -13 -65 -25 -35 -66
-129 -473 -116 -506 3 -7 1 -16 -4 -19 -14 -9 -50 17 -56 40 -6 27 58 284 122
487 4 12 -2 17 -23 20 -36 4 -32 20 9 34 30 10 36 21 78 130 53 136 74 180
103 212 26 28 40 28 94 -3z m-2916 -107 c4 -17 3 -31 -4 -37 -9 -7 -161 -31
-198 -31 -10 0 -103 -285 -136 -415 -28 -109 -29 -110 -58 -110 -28 0 -30 2
-33 45 -4 62 19 135 41 135 14 0 30 35 72 165 30 91 55 167 55 169 0 2 -26 1
-57 -2 -83 -9 -164 -39 -187 -70 -18 -25 -18 -28 -3 -69 20 -50 21 -58 7 -58
-14 0 -57 79 -64 118 -7 41 6 67 43 86 32 17 214 56 260 56 18 0 34 7 40 17 8
15 13 15 36 5 29 -13 98 -1 111 19 3 5 20 9 37 7 24 -2 32 -9 38 -30z m3446
17 c19 -8 43 -15 53 -15 24 0 30 -30 20 -98 -14 -97 -27 -122 -62 -122 -27 0
-30 3 -24 23 41 133 43 177 7 177 -26 0 -94 -78 -129 -147 -16 -32 -52 -119
-80 -193 -28 -74 -53 -142 -57 -151 -6 -15 9 -18 121 -24 112 -7 128 -6 136 9
11 20 26 12 38 -20 23 -59 -16 -79 -107 -58 -37 9 -115 17 -171 17 -89 1 -105
-1 -113 -16 -17 -29 -47 -21 -54 14 -8 36 2 46 56 55 36 6 37 8 59 83 55 190
158 402 221 455 36 30 38 31 86 11z m-2547 -295 c0 -58 -4 -73 -24 -97 -22
-25 -30 -28 -79 -26 l-55 2 -11 -44 c-15 -62 -14 -115 3 -115 18 0 83 44 127
87 54 51 57 24 4 -38 -47 -55 -90 -89 -114 -89 -8 0 -30 10 -48 23 -38 26 -42
57 -19 145 10 38 11 52 3 52 -7 0 -4 7 6 15 11 7 30 35 44 62 35 68 60 88 116
90 l47 2 0 -69z m1077 23 c-5 -43 -25 -73 -50 -73 -12 0 3 103 17 112 29 20
39 8 33 -39z m2242 29 c6 -12 5 -28 -5 -52 -9 -20 -12 -46 -8 -63 5 -23 3 -29
-8 -25 -9 4 -28 -23 -61 -86 -67 -129 -77 -139 -126 -142 -58 -3 -66 15 -65
154 0 77 -3 109 -10 102 -5 -5 -16 -10 -24 -10 -8 0 3 23 29 60 44 63 73 76
99 45 10 -13 10 -19 -4 -34 -23 -25 -50 -162 -42 -214 15 -96 35 -87 101 45
28 56 45 103 45 125 0 20 5 53 12 74 9 31 16 39 34 39 13 0 28 -8 33 -18z
m271 -56 c0 -65 -3 -75 -26 -97 -20 -19 -36 -24 -77 -24 -51 0 -51 0 -63 -40
-7 -22 -13 -57 -13 -77 -1 -62 34 -51 133 41 63 57 73 39 16 -29 -48 -58 -90
-90 -117 -90 -10 0 -34 13 -53 28 l-34 29 14 74 c8 41 14 82 12 92 -1 9 3 17
8 17 5 0 21 23 36 51 38 75 60 94 117 96 l47 1 0 -72z m-3881 57 c22 -6 23 -9
18 -70 -5 -71 -14 -87 -41 -77 -15 6 -17 15 -12 57 7 46 6 49 -9 37 -29 -24
-94 -144 -126 -231 -17 -46 -32 -85 -33 -87 -2 -1 -16 2 -31 8 -25 9 -27 14
-20 46 6 36 47 180 61 219 6 18 4 17 -19 -4 -37 -34 -34 -17 10 46 37 54 47
60 72 44 12 -8 10 -21 -12 -83 -15 -40 -27 -77 -27 -82 0 -7 38 50 117 177 5
9 20 9 52 0z m586 -9 c33 -22 31 -34 -4 -34 -22 0 -40 -12 -77 -53 -59 -64
-117 -176 -112 -215 4 -27 5 -26 62 32 70 72 138 167 161 224 19 46 21 48 49
27 19 -15 19 -16 1 -72 -48 -152 -47 -148 -25 -128 31 28 33 13 6 -41 -13 -27
-28 -61 -31 -76 -8 -32 -13 -34 -40 -14 -18 13 -19 19 -8 83 7 39 15 78 19 89
3 10 -9 1 -28 -21 -64 -78 -141 -155 -160 -161 -27 -8 -58 22 -58 57 0 61 70
194 146 278 39 44 61 50 99 25z m1190 2 c14 -10 26 -11 53 -3 31 10 36 9 53
-12 47 -57 -6 -261 -84 -327 -49 -41 -154 -23 -179 31 -30 65 72 325 127 325
6 0 20 -6 30 -14z m1330 0 c14 -10 26 -11 52 -3 27 8 36 7 52 -7 30 -28 33
-64 12 -148 -23 -89 -40 -124 -82 -173 -26 -29 -38 -35 -70 -35 -59 0 -103 22
-119 59 -11 27 -10 42 4 98 28 114 87 223 121 223 6 0 20 -6 30 -14z m-1825
-25 l-34 -28 27 -91 c37 -124 36 -131 -20 -181 -46 -41 -50 -42 -97 -36 -28 3
-53 8 -58 11 -21 13 -3 22 57 29 54 5 68 11 81 31 15 22 14 30 -16 120 -27 79
-30 100 -21 120 11 26 61 53 96 54 16 0 13 -5 -15 -29z"/>
<path d="M9860 9850 c0 -43 3 -50 20 -50 17 0 20 7 20 50 0 43 -3 50 -20 50
-17 0 -20 -7 -20 -50z"/>
<path d="M9938 9868 c-5 -49 1 -68 23 -68 16 0 19 7 19 50 0 42 -3 50 -19 50
-14 0 -20 -9 -23 -32z"/>
<path d="M10010 9850 c0 -43 3 -50 20 -50 17 0 20 7 20 50 0 43 -3 50 -20 50
-17 0 -20 -7 -20 -50z"/>
<path d="M9660 9666 c0 -14 -7 -31 -15 -40 -8 -8 -15 -26 -15 -41 0 -54 3 -55
324 -55 205 0 302 4 315 11 15 10 17 19 10 53 -4 22 -12 42 -18 44 -6 2 -11
15 -11 28 l0 24 -295 0 -295 0 0 -24z m90 -56 c0 -38 -2 -40 -30 -40 -28 0
-30 2 -30 40 0 38 2 40 30 40 28 0 30 -2 30 -40z m100 0 c0 -39 -1 -40 -35
-40 -34 0 -35 1 -35 40 0 39 1 40 35 40 34 0 35 -1 35 -40z m90 0 c0 -38 -2
-40 -30 -40 -28 0 -30 2 -30 40 0 38 2 40 30 40 28 0 30 -2 30 -40z m90 0 c0
-38 -2 -40 -30 -40 -28 0 -30 2 -30 40 0 38 2 40 30 40 28 0 30 -2 30 -40z
m100 0 c0 -38 -2 -40 -30 -40 -28 0 -30 2 -30 40 0 38 2 40 30 40 28 0 30 -2
30 -40z m90 0 c0 -38 -2 -40 -30 -40 -28 0 -30 2 -30 40 0 38 2 40 30 40 28 0
30 -2 30 -40z"/>
<path d="M9720 9410 c0 -56 3 -70 15 -70 12 0 15 14 15 70 0 56 -3 70 -15 70
-12 0 -15 -14 -15 -70z"/>
<path d="M9780 9410 c0 -56 3 -70 15 -70 12 0 15 14 15 70 0 56 -3 70 -15 70
-12 0 -15 -14 -15 -70z"/>
<path d="M9848 9410 c-2 -51 0 -70 10 -70 8 0 12 21 12 70 0 91 -17 91 -22 0z"/>
<path d="M9910 9410 c0 -56 3 -70 15 -70 12 0 15 14 15 70 0 56 -3 70 -15 70
-12 0 -15 -14 -15 -70z"/>
<path d="M9970 9410 c0 -56 3 -70 15 -70 12 0 15 14 15 70 0 56 -3 70 -15 70
-12 0 -15 -14 -15 -70z"/>
<path d="M10040 9409 c0 -93 21 -90 24 4 1 48 -3 67 -11 67 -9 0 -13 -21 -13
-71z"/>
<path d="M10100 9410 c0 -56 3 -70 15 -70 12 0 15 14 15 70 0 56 -3 70 -15 70
-12 0 -15 -14 -15 -70z"/>
<path d="M10170 9410 c0 -40 4 -70 10 -70 6 0 10 6 11 13 4 105 3 127 -8 127
-9 0 -13 -21 -13 -70z"/>
<path d="M9540 9215 l0 -65 415 0 415 0 0 65 0 65 -415 0 -415 0 0 -65z m80 0
c0 -28 -4 -35 -20 -35 -16 0 -20 7 -20 35 0 28 4 35 20 35 16 0 20 -7 20 -35z
m90 0 c0 -28 -4 -35 -20 -35 -16 0 -20 7 -20 35 0 28 4 35 20 35 16 0 20 -7
20 -35z m90 0 c0 -31 -3 -35 -25 -35 -21 0 -25 5 -25 28 0 33 7 42 32 42 14 0
18 -8 18 -35z m90 0 c0 -31 -3 -35 -25 -35 -22 0 -25 4 -25 35 0 31 3 35 25
35 22 0 25 -4 25 -35z m90 0 c0 -31 -3 -35 -25 -35 -22 0 -25 4 -25 35 0 31 3
35 25 35 22 0 25 -4 25 -35z m90 0 c0 -31 -3 -35 -25 -35 -22 0 -25 4 -25 35
0 31 3 35 25 35 22 0 25 -4 25 -35z m90 0 c0 -31 -3 -35 -25 -35 -22 0 -25 4
-25 35 0 31 3 35 25 35 22 0 25 -4 25 -35z m80 0 c0 -28 -4 -35 -20 -35 -16 0
-20 7 -20 35 0 28 4 35 20 35 16 0 20 -7 20 -35z m90 0 c0 -28 -4 -35 -20 -35
-16 0 -20 7 -20 35 0 28 4 35 20 35 16 0 20 -7 20 -35z"/>
<path d="M9310 8960 l0 -60 40 0 40 0 0 60 0 60 -40 0 -40 0 0 -60z"/>
<path d="M9460 8960 l0 -60 40 0 40 0 0 60 0 60 -40 0 -40 0 0 -60z"/>
<path d="M9610 8961 l0 -61 40 0 40 0 0 50 c0 28 1 53 3 58 1 4 -17 8 -40 10
l-43 3 0 -60z"/>
<path d="M9767 9014 c-4 -4 -7 -31 -7 -61 l0 -53 45 0 46 0 -3 58 -3 57 -35 3
c-20 2 -39 0 -43 -4z"/>
<path d="M9920 8960 l0 -60 40 0 40 0 0 60 0 60 -40 0 -40 0 0 -60z"/>
<path d="M10070 8960 l0 -60 40 0 40 0 0 60 0 60 -40 0 -40 0 0 -60z"/>
<path d="M10227 9013 c-4 -3 -7 -30 -7 -60 l0 -53 40 0 40 0 0 60 0 60 -33 0
c-19 0 -37 -3 -40 -7z"/>
<path d="M10380 8961 l0 -61 40 0 41 0 -3 58 -3 57 -37 3 -38 3 0 -60z"/>
<path d="M10530 8960 l0 -60 40 0 40 0 0 60 0 60 -40 0 -40 0 0 -60z"/>
<path d="M9460 8635 l0 -165 65 0 65 0 0 165 0 165 -65 0 -65 0 0 -165z"/>
<path d="M9630 8635 l0 -165 95 0 95 0 0 -115 0 -116 138 3 137 3 3 113 3 112
99 0 100 0 0 165 0 165 -335 0 -335 0 0 -165z"/>
<path d="M10340 8635 l0 -165 65 0 65 0 0 165 0 165 -65 0 -65 0 0 -165z"/>
<path d="M9297 8423 c-4 -3 -7 -39 -7 -80 l0 -73 194 0 193 0 27 26 c34 35 33
68 -3 105 l-29 29 -185 0 c-101 0 -187 -3 -190 -7z"/>
<path d="M10209 8401 c-32 -32 -35 -47 -18 -84 19 -41 48 -47 245 -47 l185 0
-3 78 -3 77 -188 3 -188 2 -30 -29z"/>
<path d="M8990 8080 l0 -80 965 0 965 0 0 80 0 80 -965 0 -965 0 0 -80z m298
35 c-3 -3 -9 2 -12 12 -6 14 -5 15 5 6 7 -7 10 -15 7 -18z m171 2 c0 -9 -2 -8
-6 1 -2 6 -10 9 -15 6 -7 -4 -8 -2 -4 5 9 13 26 5 25 -12z m167 11 c4 -7 3 -8
-4 -4 -7 4 -12 2 -12 -5 0 -7 -3 -10 -6 -6 -6 5 3 27 11 27 2 0 7 -5 11 -12z
m157 -3 c-3 -9 -8 -14 -10 -11 -3 3 -2 9 2 15 9 16 15 13 8 -4z m517 11 c0 -3
-4 -8 -10 -11 -5 -3 -10 -1 -10 4 0 6 5 11 10 11 6 0 10 -2 10 -4z m170 -6 c0
-5 -4 -10 -10 -10 -5 0 -10 5 -10 10 0 6 5 10 10 10 6 0 10 -4 10 -10z m170 0
c0 -5 -4 -10 -10 -10 -5 0 -10 5 -10 10 0 6 5 10 10 10 6 0 10 -4 10 -10z
m170 0 c0 -5 -2 -10 -4 -10 -3 0 -8 5 -11 10 -3 6 -1 10 4 10 6 0 11 -4 11
-10z m-1650 -71 c0 -11 -27 -30 -49 -34 -13 -2 -30 4 -43 17 l-21 21 20 8 c12
4 24 12 27 18 6 10 66 -17 66 -30z m170 -1 c0 -4 -11 -15 -24 -24 -21 -13 -29
-14 -52 -2 -31 15 -43 38 -21 38 8 0 20 6 26 14 10 12 16 12 42 -2 16 -9 29
-20 29 -24z m170 0 c0 -14 -43 -36 -62 -33 -37 8 -66 45 -34 45 7 0 19 6 25
14 10 12 16 12 42 -2 16 -9 29 -20 29 -24z m167 -3 c-2 -5 -15 -16 -29 -24
-23 -13 -29 -13 -52 2 -33 22 -33 28 2 47 24 14 30 14 54 0 16 -8 26 -19 25
-25z m162 15 c20 0 7 -23 -21 -39 -23 -13 -29 -13 -52 2 -33 22 -33 28 2 48
23 13 29 14 43 2 8 -7 21 -13 28 -13z m178 -15 c-2 -5 -16 -16 -31 -23 -23
-12 -31 -11 -52 2 -31 21 -30 27 4 46 24 14 30 14 54 0 16 -8 26 -19 25 -25z
m162 15 c21 0 6 -24 -23 -38 -23 -12 -31 -11 -52 2 -31 21 -30 27 4 47 23 13
29 14 43 2 8 -7 21 -13 28 -13z m170 0 c19 0 -5 -38 -29 -45 -20 -6 -70 17
-70 33 0 4 12 14 28 23 23 13 29 14 43 2 8 -7 21 -13 28 -13z m169 0 c19 0 1
-31 -24 -41 -26 -9 -74 6 -74 25 0 6 12 18 28 27 23 13 29 14 43 2 8 -7 21
-13 27 -13z m151 7 c28 -12 30 -15 17 -32 -18 -25 -74 -25 -92 0 -13 17 -11
20 13 31 16 7 29 13 29 13 1 1 16 -5 33 -12z m170 0 c28 -12 30 -15 17 -32
-18 -25 -74 -25 -92 0 -13 17 -11 20 13 31 16 7 29 13 29 13 1 1 16 -5 33 -12z"/>
<path d="M9230 7870 l0 -50 105 0 105 0 0 50 0 50 -105 0 -105 0 0 -50z"/>
<path d="M9540 7870 l0 -50 103 0 c57 0 106 2 108 4 2 3 3 25 1 50 l-4 46
-104 0 -104 0 0 -50z"/>
<path d="M9848 7874 c-2 -25 -1 -47 1 -50 2 -2 51 -4 108 -4 l103 0 0 50 0 50
-104 0 -104 0 -4 -46z"/>
<path d="M10160 7870 l0 -50 105 0 105 0 0 50 0 50 -105 0 -105 0 0 -50z"/>
<path d="M10470 7870 l0 -50 105 0 105 0 0 50 0 50 -105 0 -105 0 0 -50z"/>
<path d="M8613 7710 c-36 -21 -63 -66 -63 -103 0 -31 39 -88 70 -104 20 -10
302 -12 1347 -10 l1323 2 31 31 c40 41 48 96 19 142 -41 66 42 62 -1392 62
-1275 0 -1304 0 -1335 -20z m107 -54 c0 -6 -5 -3 -11 7 -6 9 -14 15 -20 12
-11 -7 -12 8 -2 19 8 8 33 -22 33 -38z m250 0 c0 -6 -5 -3 -11 8 -9 15 -13 16
-20 5 -7 -11 -9 -11 -9 2 0 9 3 19 7 23 8 8 33 -22 33 -38z m250 0 c0 -5 -7
-1 -15 10 -10 13 -14 15 -15 5 0 -8 -2 -12 -5 -9 -3 3 -2 13 1 23 7 17 8 17
21 -1 7 -10 13 -22 13 -28z m250 6 c0 -13 -3 -12 -15 4 -14 19 -14 19 -15 0 0
-11 -3 -17 -6 -13 -3 3 -3 15 1 27 5 17 10 19 21 9 8 -6 14 -19 14 -27z m250
0 c0 -13 -3 -12 -15 4 -14 19 -14 19 -15 0 0 -11 -3 -17 -6 -13 -3 3 -3 15 1
27 5 17 10 19 21 9 8 -6 14 -19 14 -27z m245 17 c4 -11 4 -23 1 -26 -3 -4 -6
1 -6 10 0 10 -4 17 -10 17 -5 0 -10 -7 -10 -17 0 -9 -3 -14 -6 -10 -8 8 5 47
16 47 5 0 12 -9 15 -21z m250 0 c4 -11 4 -23 1 -26 -3 -4 -6 1 -6 10 0 10 -4
17 -10 17 -5 0 -10 -7 -10 -17 0 -9 -3 -14 -6 -10 -8 8 5 47 16 47 5 0 12 -9
15 -21z m250 0 c4 -11 4 -23 1 -26 -3 -4 -6 2 -6 13 -1 19 -1 19 -15 0 -15
-20 -20 -10 -9 18 8 22 21 20 29 -5z m249 5 c4 -9 4 -19 1 -22 -3 -3 -5 1 -5
9 -1 10 -5 8 -15 -5 -15 -20 -20 -10 -9 18 8 21 20 20 28 0z m256 -19 c0 -5
-4 -4 -9 4 -7 11 -11 10 -20 -5 -8 -15 -10 -16 -11 -3 0 23 22 42 32 26 4 -6
8 -16 8 -22z m244 19 c3 -8 2 -12 -3 -9 -6 3 -14 -3 -20 -12 -14 -23 -14 -7
-1 18 13 23 16 24 24 3z m-444 -94 c26 0 25 -13 -3 -45 -38 -45 -136 -30 -149
23 -4 16 1 21 23 26 16 3 36 14 45 24 16 19 17 19 40 -4 12 -13 32 -24 44 -24z
m-2043 20 c14 -11 34 -20 45 -20 17 0 18 -2 3 -30 -27 -53 -115 -57 -150 -7
-20 28 -19 37 4 37 10 0 29 9 42 20 30 24 26 24 56 0z m243 5 c7 -8 25 -18 41
-23 26 -6 28 -9 16 -32 -26 -52 -118 -56 -152 -7 -20 28 -19 37 4 37 10 0 29
9 42 20 29 24 33 24 49 5z m257 -5 c14 -11 34 -20 44 -20 11 0 19 -3 19 -6 0
-19 -27 -48 -56 -60 -29 -12 -39 -12 -68 0 -29 12 -56 41 -56 60 0 3 9 6 19 6
10 0 29 9 42 20 30 24 26 24 56 0z m250 0 c14 -11 34 -20 44 -20 26 0 24 -16
-6 -45 -18 -19 -35 -25 -65 -25 -30 0 -47 6 -65 25 -30 29 -32 45 -6 45 10 0
29 9 42 20 30 24 26 24 56 0z m250 0 c14 -11 34 -20 44 -20 26 0 24 -16 -6
-45 -18 -19 -35 -25 -65 -25 -30 0 -47 6 -65 25 -30 29 -32 45 -6 45 10 0 29
9 42 20 30 24 26 24 56 0z m250 0 c14 -11 34 -20 44 -20 24 0 24 -12 2 -39
-38 -46 -126 -42 -152 8 -15 27 -14 31 8 31 10 0 29 9 42 20 30 24 26 24 56 0z
m250 0 c14 -11 34 -20 44 -20 26 0 24 -16 -6 -45 -18 -19 -35 -25 -65 -25 -30
0 -47 6 -65 25 -30 29 -32 45 -6 45 10 0 29 9 42 20 30 24 26 24 56 0z m250 0
c14 -11 34 -20 44 -20 23 0 24 -9 4 -37 -34 -49 -126 -45 -152 7 -12 23 -10
26 16 32 16 5 34 15 41 23 16 19 17 19 47 -5z m500 0 c14 -11 34 -20 44 -20
26 0 24 -22 -5 -49 -43 -40 -135 -23 -148 27 -4 16 1 21 22 26 16 3 34 12 42
20 17 19 15 20 45 -4z m294 -20 c25 0 24 -18 -3 -47 -16 -17 -32 -23 -62 -23
-45 1 -66 13 -85 48 -11 20 -9 22 11 22 13 0 34 9 48 19 24 19 25 19 48 0 14
-10 33 -19 43 -19z"/>
<path d="M11455 6599 c-4 -11 -4 -23 -1 -26 3 -4 6 1 6 10 0 10 5 17 10 17 6
0 10 -7 10 -17 0 -9 3 -14 6 -10 8 8 -5 47 -16 47 -5 0 -12 -9 -15 -21z"/>
<path d="M11441 6530 c-13 -11 -34 -20 -47 -20 -22 0 -24 -2 -13 -22 18 -36
51 -58 87 -58 44 0 68 14 87 50 15 29 15 30 -8 30 -14 0 -36 9 -50 20 -30 24
-26 24 -56 0z"/>
<path d="M8406 6525 c-9 -25 -7 -29 7 -16 8 6 17 7 22 3 4 -4 6 -1 3 7 -6 21
-25 24 -32 6z"/>
<path d="M8398 6454 c-8 -9 -27 -17 -42 -17 -14 -1 -26 -7 -26 -12 0 -20 30
-52 59 -65 38 -15 75 -7 107 25 29 29 33 59 6 50 -11 -3 -29 3 -45 15 -30 24
-38 25 -59 4z"/>
<path d="M9759 7128 c-42 -24 -73 -74 -88 -138 -9 -39 -7 -46 16 -77 19 -25
27 -49 31 -98 4 -56 9 -69 31 -86 l26 -21 6 43 c5 33 15 50 50 82 24 22 61 55
81 73 45 40 62 93 48 145 -6 20 -17 42 -25 49 -13 11 -13 8 -4 -20 35 -99 -81
-192 -157 -126 -54 45 -26 136 41 136 27 0 55 -29 55 -58 0 -23 -25 -52 -45
-52 -19 0 -45 39 -38 56 7 20 53 18 53 -2 0 -12 -6 -15 -21 -11 -13 3 -19 1
-16 -6 6 -18 38 -14 50 5 15 23 -8 48 -44 48 -48 0 -66 -63 -29 -100 36 -36
102 -25 125 21 25 48 19 87 -19 125 -40 40 -74 43 -127 12z"/>
<path d="M10080 7114 c-66 -29 -100 -62 -100 -99 0 -46 -13 -76 -50 -118 -25
-29 -29 -41 -24 -64 10 -43 12 -43 43 -12 28 28 34 29 118 29 121 0 157 12
193 62 18 25 30 53 30 72 0 31 0 31 -19 -11 -30 -65 -91 -89 -151 -58 -69 36
-68 127 2 154 47 18 96 -24 84 -72 -7 -28 -35 -42 -66 -32 -25 8 -28 60 -3 69
19 8 48 -17 39 -33 -11 -16 -24 -13 -28 7 -2 11 -6 13 -10 6 -4 -6 -1 -20 7
-30 13 -19 14 -18 36 3 21 21 21 23 5 47 -22 34 -58 34 -84 1 -37 -46 -1 -115
59 -115 43 0 77 20 94 55 19 41 19 58 0 95 -29 56 -104 75 -175 44z"/>
<path d="M9597 6940 c35 -21 63 -66 63 -102 0 -41 -36 -86 -73 -93 -74 -14
-130 53 -93 110 24 36 82 35 98 -1 16 -34 0 -59 -38 -59 -24 0 -29 4 -29 25 0
18 6 26 23 28 27 4 31 -24 5 -31 -14 -4 -13 -5 3 -6 28 -1 38 24 18 44 -18 18
-28 19 -55 5 -35 -19 -17 -97 24 -101 89 -9 132 88 68 152 -43 43 -101 41
-147 -5 -30 -30 -34 -40 -34 -88 0 -38 8 -69 25 -104 22 -44 30 -51 70 -62 43
-11 66 -28 107 -80 17 -21 66 -30 81 -16 3 4 -3 19 -15 34 -17 24 -20 37 -14
82 16 141 18 168 12 192 -11 44 -72 96 -113 96 -13 0 -9 -6 14 -20z"/>
<path d="M10270 6895 c-30 -33 -78 -55 -119 -55 -21 0 -35 -8 -50 -29 -29 -41
-27 -51 13 -44 40 6 64 -5 136 -67 67 -58 90 -70 130 -70 37 0 90 21 109 43
17 21 11 21 -25 2 -37 -19 -67 -19 -105 1 -35 18 -63 75 -53 107 19 63 92 89
134 47 47 -47 3 -122 -58 -99 -32 12 -28 72 5 77 28 4 49 -30 29 -47 -16 -13
-32 2 -21 19 3 6 -1 10 -9 10 -24 0 -19 -38 4 -45 47 -15 69 51 28 79 -31 22
-45 20 -73 -9 -53 -52 -12 -135 67 -135 32 0 47 7 74 34 41 41 44 78 11 126
-31 47 -77 71 -145 77 -53 5 -59 3 -82 -22z"/>
<path d="M9852 6834 c-31 -25 -62 -71 -62 -94 0 -6 12 -22 26 -35 34 -31 78
-33 98 -4 13 20 13 25 -1 53 -9 17 -21 34 -26 38 -14 8 -43 -7 -50 -26 -8 -20
19 -47 40 -39 13 5 12 8 -6 15 -27 9 -23 33 5 33 14 0 19 -7 19 -30 0 -27 -3
-30 -30 -30 -40 0 -58 44 -30 75 10 11 26 20 37 20 13 0 18 7 18 25 0 14 -1
25 -2 25 -2 0 -18 -12 -36 -26z"/>
<path d="M9971 6819 c-31 -18 -33 -23 -28 -57 8 -44 41 -75 71 -66 31 9 36 16
39 60 2 35 -1 39 -22 42 -31 5 -56 -25 -40 -45 6 -7 16 -13 21 -13 6 0 5 7 -2
15 -10 12 -10 19 -2 27 16 16 45 -12 37 -34 -9 -23 -43 -29 -60 -11 -21 20
-19 47 5 68 18 16 33 17 70 1 9 -4 20 2 28 14 12 19 10 20 -35 20 -31 0 -60
-8 -82 -21z"/>
<path d="M10103 6749 c-29 -10 -49 -64 -35 -94 14 -31 49 -42 70 -21 15 15 14
16 -10 16 -46 0 -49 64 -3 76 27 7 65 -11 65 -31 0 -20 17 -28 36 -17 13 8 10
14 -21 40 -41 33 -71 43 -102 31z"/>
<path d="M9706 6731 c-14 -21 -11 -117 3 -134 20 -25 97 -23 111 2 17 32 12
68 -10 74 -17 4 -18 2 -10 -14 8 -14 6 -23 -10 -39 -25 -25 -35 -25 -60 0 -24
24 -25 38 -4 69 15 20 15 25 1 38 -10 10 -17 11 -21 4z"/>
<path d="M10119 6704 c-6 -8 -8 -21 -3 -31 7 -16 8 -15 11 5 6 32 33 28 33 -5
0 -20 3 -24 11 -16 15 15 2 50 -21 56 -11 3 -24 -1 -31 -9z"/>
<path d="M9917 6684 c-16 -13 -37 -24 -48 -24 -13 0 -19 -7 -19 -24 0 -13 -9
-34 -19 -47 -17 -22 -17 -27 -5 -44 8 -10 14 -34 14 -52 0 -27 4 -33 20 -33
12 0 32 -11 46 -25 20 -20 29 -23 39 -15 8 7 30 10 50 9 30 -3 38 1 48 21 7
14 22 29 33 34 18 8 21 16 17 46 -3 21 0 46 6 57 9 17 7 22 -9 26 -11 3 -27
21 -35 40 -12 29 -18 34 -40 30 -14 -3 -35 1 -48 10 -21 13 -25 13 -50 -9z"/>
<path d="M9734 6676 c-11 -28 1 -51 25 -51 14 0 26 5 28 11 2 7 -6 10 -22 7
-33 -7 -35 24 -2 37 l22 9 -23 0 c-12 1 -25 -5 -28 -13z"/>
<path d="M10220 6659 c-34 -14 -34 -13 3 -50 29 -29 36 -46 46 -109 7 -41 17
-87 22 -101 23 -61 111 -110 159 -90 l25 10 -28 0 c-77 2 -130 76 -106 148 27
83 159 73 159 -12 0 -36 -26 -65 -58 -65 -25 0 -52 25 -52 49 0 36 46 55 69
27 15 -18 3 -46 -20 -46 -22 0 -24 11 -7 28 6 6 9 14 6 17 -10 10 -37 -25 -32
-40 9 -22 35 -27 60 -10 29 19 31 48 4 75 -27 27 -66 25 -95 -5 -34 -33 -33
-76 4 -117 54 -60 148 -37 172 42 17 57 -1 111 -55 165 -41 40 -46 43 -98 42
-42 -1 -65 5 -101 26 -25 15 -47 27 -49 26 -2 0 -14 -5 -28 -10z"/>
<path d="M9419 6627 c-13 -10 -6 -12 38 -12 49 0 58 -3 84 -33 53 -59 27 -144
-48 -158 -25 -5 -37 -1 -57 19 -38 38 -34 82 9 104 49 25 97 -35 56 -68 -12
-10 -29 -15 -36 -12 -21 7 -19 53 1 53 12 0 15 -6 11 -21 -3 -13 -1 -19 6 -16
7 2 12 15 12 28 0 33 -38 38 -59 7 -20 -29 -20 -34 4 -58 45 -45 114 -11 114
55 0 94 -134 125 -185 41 -24 -40 -24 -67 1 -116 22 -43 61 -74 117 -94 33
-11 43 -11 83 7 39 17 51 19 95 9 43 -9 53 -8 74 7 32 23 38 41 13 41 -32 0
-76 43 -110 109 -18 32 -48 73 -67 90 -30 26 -44 31 -88 31 -29 0 -59 -6 -68
-13z"/>
<path d="M10143 6604 c-37 -16 -51 -51 -33 -84 9 -17 19 -21 53 -18 39 3 42 5
42 33 0 25 -4 30 -25 30 -16 0 -26 -6 -28 -18 -3 -16 -1 -17 17 -5 23 14 36 6
28 -17 -8 -20 -53 -20 -61 1 -7 19 10 54 27 55 46 5 71 -22 62 -67 -4 -26 -2
-32 15 -37 19 -5 20 -2 14 31 -9 49 -30 89 -53 102 -11 5 -21 10 -23 9 -2 0
-18 -7 -35 -15z"/>
<path d="M9772 6537 c28 -22 27 -61 -3 -77 -31 -17 -69 11 -69 50 0 25 -4 30
-25 30 l-25 0 19 -37 c25 -50 54 -75 86 -75 29 0 61 25 71 54 8 26 -22 68 -49
68 -20 -1 -20 -2 -5 -13z"/>
<path d="M9713 6524 c-8 -22 9 -48 36 -52 24 -4 40 23 22 41 -8 8 -11 7 -11
-6 0 -9 -7 -17 -15 -17 -18 0 -20 36 -2 43 7 3 5 6 -6 6 -10 1 -20 -6 -24 -15z"/>
<path d="M10067 6463 c-21 -24 -22 -59 -1 -67 11 -4 15 -2 11 8 -3 8 0 22 8
32 11 15 18 17 42 9 23 -9 28 -16 28 -44 0 -31 -6 -39 -43 -58 -2 -1 2 -11 8
-24 12 -22 13 -22 36 17 27 44 32 105 10 123 -27 23 -80 25 -99 4z"/>
<path d="M10191 6449 c16 -31 4 -75 -41 -152 -21 -37 -42 -83 -46 -101 -10
-57 40 -146 82 -146 4 0 -3 11 -15 24 -73 77 -1 207 96 175 63 -21 77 -110 21
-137 -58 -28 -118 40 -70 79 36 29 81 4 65 -37 -7 -19 -48 -14 -48 6 0 9 7 14
20 12 16 -3 17 -1 8 8 -16 17 -43 5 -43 -18 0 -39 45 -55 74 -26 37 37 1 104
-56 104 -68 0 -103 -95 -58 -153 42 -53 111 -56 156 -6 36 40 44 65 44 133 0
54 -4 69 -21 84 -56 47 -76 74 -87 111 -13 42 -35 61 -72 61 -18 0 -19 -3 -9
-21z"/>
<path d="M9811 6416 c-26 -41 -19 -66 19 -66 34 0 47 27 25 49 -13 14 -15 12
-15 -13 0 -18 -4 -26 -12 -23 -20 6 -16 51 5 55 42 8 66 -57 28 -78 -29 -15
-49 -12 -72 11 -19 19 -23 20 -37 5 -14 -14 -13 -16 14 -27 59 -23 100 -23
123 0 27 27 27 75 1 101 -29 29 -55 25 -79 -14z"/>
<path d="M10090 6420 c0 -5 9 -10 20 -10 11 0 20 -7 20 -15 0 -8 -9 -15 -20
-15 -11 0 -20 -4 -20 -10 0 -5 9 -10 20 -10 23 0 43 32 34 54 -7 17 -54 22
-54 6z"/>
<path d="M9950 6402 c-15 -12 -19 -23 -14 -36 6 -16 8 -16 16 -2 13 23 55 20
68 -5 18 -33 -11 -69 -55 -69 -29 0 -35 -4 -35 -21 0 -17 4 -19 23 -13 43 13
77 35 93 58 14 22 14 27 0 55 -15 29 -43 51 -64 51 -5 0 -20 -8 -32 -18z"/>
<path d="M9970 6362 c0 -6 7 -13 16 -16 8 -3 12 -10 9 -16 -9 -14 -42 -12 -48
3 -3 7 -6 6 -6 -5 -1 -22 36 -33 55 -17 19 16 14 53 -8 57 -10 2 -18 -1 -18
-6z"/>
<path d="M9554 6328 c-37 -29 -53 -49 -53 -68 0 -13 1 -13 12 0 45 58 122 67
168 21 74 -74 -11 -198 -91 -133 -40 33 -23 102 25 102 29 0 47 -22 43 -52 -4
-32 -52 -33 -56 0 -2 15 2 22 12 22 9 0 16 -8 16 -17 0 -15 2 -16 10 -3 6 10
5 19 -4 28 -19 19 -56 -1 -56 -31 0 -32 18 -47 57 -47 65 0 83 90 26 127 -67
44 -153 -6 -153 -88 0 -34 6 -47 34 -74 40 -37 82 -47 150 -34 64 12 71 17 99
69 16 32 36 52 70 70 38 20 48 32 53 58 7 39 0 50 -21 32 -8 -7 -32 -12 -52
-12 -36 1 -135 31 -150 45 -3 4 -30 7 -58 7 -39 0 -60 -6 -81 -22z"/>
<path d="M10070 6332 c0 -31 -52 -69 -133 -97 -95 -34 -133 -70 -143 -132 -4
-25 -2 -54 4 -66 10 -20 11 -19 11 13 2 100 107 156 172 91 37 -38 39 -82 4
-116 -28 -29 -51 -31 -83 -9 -24 17 -30 62 -10 82 31 31 86 2 73 -38 -8 -26
-48 -24 -53 3 -4 20 24 24 31 5 3 -8 6 -6 6 5 1 25 -27 33 -47 14 -23 -24 -2
-67 33 -67 29 0 65 32 65 59 0 35 -38 71 -76 71 -46 0 -70 -14 -90 -52 -35
-68 18 -148 99 -148 53 0 97 27 137 82 29 40 30 46 24 108 -5 50 -2 75 10 105
13 31 14 45 5 66 -13 33 -39 46 -39 21z"/>
<path d="M8770 6105 c-10 -12 -4 -41 31 -156 24 -78 49 -148 54 -156 14 -19
183 -20 200 -1 16 17 78 269 73 299 l-3 24 -171 3 c-142 2 -173 0 -184 -13z"/>
<path d="M8516 5941 c-79 -80 -117 -126 -114 -138 2 -11 53 -43 143 -90 77
-40 144 -73 148 -73 16 0 137 123 137 139 0 30 -155 276 -176 279 -13 2 -54
-33 -138 -117z"/>
<path d="M9206 6022 c-35 -56 -126 -239 -126 -255 0 -17 122 -137 139 -137 14
0 222 122 254 148 35 30 20 55 -96 170 -63 62 -121 112 -130 112 -9 0 -28 -17
-41 -38z"/>
<path d="M8896 5714 c-3 -9 -4 -20 -1 -24 3 -5 1 -11 -5 -15 -5 -3 -10 0 -10
8 0 8 -7 18 -16 21 -13 5 -15 1 -12 -19 5 -25 -5 -34 -17 -15 -10 17 -25 11
-25 -9 0 -11 6 -22 13 -24 6 -3 -3 -3 -21 0 -27 5 -31 3 -26 -11 3 -9 10 -16
15 -16 5 0 9 -4 9 -9 0 -4 -11 -6 -25 -3 -27 5 -35 -15 -10 -24 8 -4 15 -10
15 -16 0 -5 -4 -7 -9 -4 -5 4 -16 3 -25 0 -13 -5 -14 -9 -5 -20 9 -11 8 -18
-1 -29 -10 -12 -9 -16 3 -21 9 -3 21 -3 27 1 5 3 10 2 10 -2 0 -5 -10 -14 -22
-22 -20 -12 -20 -14 -4 -23 13 -8 21 -7 27 3 6 9 9 10 9 2 0 -6 -4 -15 -10
-18 -15 -10 -12 -35 5 -35 8 0 15 5 15 11 0 5 5 7 11 3 8 -5 8 -9 -1 -14 -7
-4 -10 -16 -8 -25 3 -18 4 -18 21 -1 18 18 20 15 17 -21 -1 -17 3 -21 14 -17
9 3 16 13 16 21 0 8 4 12 9 9 5 -3 7 -15 4 -26 -4 -14 0 -20 11 -20 9 0 16 7
16 15 0 8 5 15 11 15 5 0 8 -4 5 -8 -2 -4 -1 -14 4 -21 10 -17 33 -4 26 15 -3
8 -2 14 3 14 5 0 11 -9 14 -20 8 -30 30 -25 25 5 -6 29 -2 31 18 10 24 -23 37
-18 30 13 -3 15 -3 21 0 15 7 -15 44 -18 44 -4 0 6 -4 13 -10 16 -5 3 -10 10
-10 16 0 5 9 4 20 -3 24 -15 38 -3 23 21 -10 16 -9 18 6 14 29 -7 34 14 9 33
-13 9 -16 14 -7 11 9 -3 22 -2 29 3 15 9 5 30 -16 30 -8 0 -14 4 -14 9 0 5 8
8 18 7 9 0 17 6 17 14 0 8 -8 14 -17 14 -22 -2 -24 12 -3 20 25 9 17 26 -12
26 -24 1 -25 2 -10 11 25 15 21 32 -7 27 -21 -4 -23 -3 -13 13 15 24 1 36 -24
21 -18 -12 -19 -10 -13 14 6 23 4 26 -10 21 -10 -4 -20 -7 -22 -7 -3 0 -2 -4
1 -10 3 -5 1 -10 -5 -10 -7 0 -9 7 -6 16 3 9 4 20 1 24 -9 14 -35 0 -36 -19
-1 -10 -4 -7 -7 7 -9 29 -26 30 -30 2 -2 -11 -7 -20 -12 -20 -5 0 -7 6 -4 13
3 8 -2 19 -9 26 -12 9 -16 8 -21 -5z m38 -91 c-1 -16 -3 -30 -3 -33 -1 -5 -31
49 -31 56 0 2 8 4 18 4 13 0 17 -7 16 -27z m52 11 c-3 -9 -6 -22 -6 -30 0 -7
-6 -11 -14 -8 -18 7 -8 54 11 54 10 0 13 -6 9 -16z m35 -35 c-28 -26 -31 -24
-18 11 9 23 14 27 24 18 11 -9 10 -14 -6 -29z m44 21 c10 -11 16 -20 13 -20
-3 0 -13 9 -23 20 -10 11 -16 20 -13 20 3 0 13 -9 23 -20z m-177 -11 c7 -12
11 -23 9 -26 -8 -7 -47 30 -41 39 8 13 18 9 32 -13z m-23 -39 c9 0 12 -6 8
-17 -4 -11 -8 -12 -11 -5 -2 7 -12 12 -23 12 -21 0 -22 1 -13 25 6 16 8 16 16
1 5 -9 15 -16 23 -16z m206 9 c7 -15 8 -19 0 -15 -6 4 -20 2 -31 -4 -25 -13
-26 -6 -2 19 22 25 19 25 33 0z m-72 -25 c26 -33 26 -55 4 -82 -42 -50 -123
-24 -123 39 0 65 80 93 119 43z m-139 -34 c0 -3 -11 -6 -25 -6 -18 -1 -25 3
-25 16 0 16 3 17 25 7 14 -7 25 -14 25 -17z m230 6 c0 -8 -11 -13 -30 -12 -33
1 -40 12 -12 19 32 9 42 7 42 -7z m-310 -6 c0 -5 -4 -10 -10 -10 -5 0 -10 5
-10 10 0 6 5 10 10 10 6 0 10 -4 10 -10z m303 -51 c-5 -17 -6 -17 -29 -1 -31
23 -30 29 5 24 22 -3 28 -8 24 -23z m-213 12 c0 -3 -11 -11 -25 -18 -14 -6
-25 -10 -25 -8 0 2 -2 10 -5 18 -4 10 2 14 25 14 16 0 30 -3 30 -6z m3 -51
c-13 -15 -20 -17 -30 -8 -11 9 -9 13 9 23 31 16 41 9 21 -15z m171 15 c10 -7
15 -18 11 -24 -9 -16 -25 -13 -25 4 0 8 -4 15 -10 15 -5 0 -10 5 -10 10 0 14
11 12 34 -5z m-132 -40 c-5 -27 -10 -29 -30 -16 -11 7 -11 9 2 14 9 4 16 14
16 22 0 9 4 14 9 11 4 -3 6 -17 3 -31z m95 10 c7 -16 8 -27 1 -31 -12 -8 -14
-5 -22 29 -8 34 5 35 21 2z m-50 3 c-2 -7 0 -21 5 -30 7 -15 4 -18 -13 -18
-15 0 -19 4 -15 16 3 9 6 22 6 30 0 8 5 14 11 14 6 0 9 -6 6 -12z m-116 -15
c13 -16 12 -17 -3 -4 -10 7 -18 15 -18 17 0 8 8 3 21 -13z m116 -49 c-3 -3
-12 -4 -19 -1 -8 3 -5 6 6 6 11 1 17 -2 13 -5z"/>
<path d="M8352 5688 c-13 -13 -18 -311 -6 -342 9 -24 40 -20 192 29 l140 45 4
74 c6 135 14 126 -147 168 -159 41 -167 42 -183 26z"/>
<path d="M9365 5654 c-76 -25 -143 -50 -147 -57 -13 -21 -9 -183 5 -195 19
-15 292 -76 311 -69 15 6 16 27 14 184 -3 170 -4 178 -23 180 -11 1 -83 -18
-160 -43z"/>
<path d="M8645 5380 c-68 -32 -227 -134 -239 -153 -9 -14 7 -35 109 -137 66
-66 127 -120 136 -120 22 0 26 5 105 157 l69 132 -70 70 -70 70 -40 -19z"/>
<path d="M9127 5322 c-36 -36 -57 -66 -57 -81 0 -12 34 -78 76 -147 59 -96 82
-124 98 -124 29 0 246 218 246 247 0 17 -25 35 -134 92 -74 39 -143 71 -153
71 -10 0 -44 -26 -76 -58z"/>
<path d="M8837 5228 c-19 -30 -81 -294 -72 -308 10 -16 350 -14 363 3 7 8 -3
55 -35 157 -25 80 -50 151 -55 158 -7 8 -40 12 -99 12 -81 0 -90 -2 -102 -22z"/>
<path d="M10857 6083 c-4 -3 -7 -15 -7 -26 0 -25 79 -278 92 -294 12 -14 174
-18 195 -5 16 10 85 295 77 316 -5 14 -29 16 -178 16 -95 0 -176 -3 -179 -7z"/>
<path d="M10601 5916 c-88 -88 -112 -118 -109 -136 2 -17 32 -37 133 -91 72
-38 139 -69 150 -69 27 0 135 109 135 137 0 12 -34 78 -76 147 -60 99 -81 126
-98 126 -14 0 -60 -39 -135 -114z"/>
<path d="M11297 6008 c-54 -88 -137 -262 -132 -277 8 -27 123 -133 139 -129
33 8 267 155 272 172 5 14 -21 46 -112 137 -65 66 -127 119 -136 119 -10 0
-24 -10 -31 -22z"/>
<path d="M10982 5675 c6 -29 2 -31 -18 -10 -9 8 -20 15 -25 15 -13 0 -11 -24
3 -38 16 -16 3 -15 -22 0 -22 14 -39 3 -22 -14 19 -19 14 -29 -8 -16 -25 16
-38 3 -22 -22 16 -27 15 -35 -3 -20 -11 9 -19 10 -26 3 -7 -7 -4 -16 12 -27
l23 -16 -27 0 c-31 0 -36 -19 -7 -27 25 -7 27 -21 3 -19 -10 0 -18 -6 -18 -14
0 -8 8 -14 18 -14 21 2 23 -12 2 -20 -25 -9 -17 -26 12 -26 26 0 26 -1 7 -15
-16 -12 -17 -16 -4 -24 9 -7 19 -6 27 1 16 13 17 -4 1 -20 -17 -17 0 -28 23
-14 18 12 19 10 13 -14 -6 -23 -4 -26 10 -21 10 4 20 7 22 7 3 0 2 5 -1 10 -3
6 -1 10 4 10 6 0 10 -10 8 -21 -3 -30 21 -36 32 -7 10 23 10 23 10 1 1 -30 21
-40 28 -14 3 12 10 21 15 21 5 0 7 -4 4 -9 -3 -5 1 -14 9 -21 12 -10 15 -10
17 1 0 8 2 19 3 24 2 6 3 15 4 20 1 6 6 0 11 -12 13 -31 34 -30 28 2 -3 14 -1
25 3 25 5 0 9 -4 9 -10 0 -5 7 -10 16 -10 12 0 15 6 10 24 -5 20 -3 23 19 18
20 -3 24 -1 19 12 -3 9 -10 16 -15 16 -5 0 -9 4 -9 9 0 4 11 6 25 3 27 -5 35
15 10 24 -8 4 -15 10 -15 15 0 4 7 6 15 3 22 -9 38 5 24 22 -9 11 -9 17 0 28
9 11 8 15 -5 20 -9 3 -20 4 -25 0 -5 -3 -9 0 -9 5 0 6 6 11 14 11 8 0 16 7 20
15 3 9 0 15 -10 15 -12 0 -15 6 -11 21 5 18 2 20 -19 16 -13 -2 -27 0 -30 4
-3 5 0 9 5 9 6 0 11 7 11 15 0 8 -7 15 -15 15 -8 0 -15 -4 -15 -10 0 -5 -5
-10 -10 -10 -6 0 -8 11 -4 25 7 27 -12 36 -22 10 -9 -22 -23 -9 -17 15 6 23
-15 28 -23 5 -4 -8 -10 -15 -16 -15 -5 0 -7 4 -4 8 8 13 -11 35 -23 28 -6 -4
-11 -15 -12 -24 0 -12 -3 -11 -9 6 -13 30 -34 29 -28 -3z m36 -75 c1 -36 -9
-38 -24 -5 -10 20 -9 25 5 28 9 3 16 5 17 6 1 0 1 -12 2 -29z m52 20 c4 0 3
-11 -3 -25 -13 -27 -33 -35 -23 -9 4 9 1 24 -6 32 -11 13 -10 15 5 9 10 -4 22
-7 27 -7z m-96 -45 c5 -24 4 -26 -4 -12 -6 9 -19 17 -28 17 -15 1 -15 2 2 15
23 17 21 18 30 -20z m143 24 c9 -9 6 -16 -10 -29 -26 -21 -44 -16 -22 6 8 9
13 20 10 25 -9 13 9 11 22 -2z m34 -6 c13 -16 12 -17 -3 -4 -10 7 -18 15 -18
17 0 8 8 3 21 -13z m-191 -68 c0 -3 -9 -1 -20 5 -11 6 -25 8 -31 4 -8 -4 -7 0
0 15 11 20 12 20 31 1 11 -11 20 -22 20 -25z m200 27 c0 -9 -48 -31 -54 -25
-7 8 37 42 46 36 5 -2 8 -7 8 -11z m-77 -20 c40 -35 6 -112 -50 -112 -34 0
-46 8 -62 37 -17 34 -3 73 32 88 33 14 52 11 80 -13z m87 -26 c0 -19 -4 -22
-25 -18 -30 5 -34 22 -5 22 11 0 20 5 20 10 0 6 2 10 5 10 3 0 5 -11 5 -24z
m-220 -16 c0 -3 -14 -5 -30 -6 -22 -1 -30 3 -30 17 0 15 4 16 30 6 17 -6 30
-14 30 -17z m270 -10 c0 -5 -4 -10 -10 -10 -5 0 -10 5 -10 10 0 6 5 10 10 10
6 0 10 -4 10 -10z m-270 -19 c0 -5 -34 -30 -41 -31 -4 0 -9 8 -11 18 -4 13 1
17 24 17 15 0 28 -2 28 -4z m220 -6 c0 -5 -4 -16 -9 -23 -7 -11 -9 -11 -14 2
-4 9 -14 16 -22 16 -9 0 -14 3 -12 8 7 11 57 9 57 -3z m-28 -45 c6 0 6 -6 -2
-15 -10 -13 -15 -12 -30 8 -21 26 -16 44 6 22 9 -8 20 -15 26 -15z m-172 13
c0 -5 -7 -17 -16 -28 -12 -17 -16 -18 -24 -6 -6 11 -2 18 13 27 28 16 27 15
27 7z m32 -30 c-5 -10 -7 -24 -4 -32 3 -10 0 -12 -12 -8 -10 4 -20 7 -22 7 -8
0 31 49 39 50 4 0 4 -8 -1 -17z m84 0 c17 -23 17 -30 0 -36 -10 -4 -15 4 -18
24 -5 33 -1 36 18 12z m-46 -13 c0 -11 0 -23 1 -27 0 -4 -4 -9 -10 -11 -6 -2
-9 10 -8 27 2 34 17 43 17 11z"/>
<path d="M10436 5662 c-8 -13 -9 -339 -1 -352 10 -16 29 -13 180 35 89 28 145
51 149 61 9 24 7 167 -3 182 -8 13 -256 81 -298 82 -12 0 -24 -4 -27 -8z"/>
<path d="M11450 5626 c-69 -22 -131 -45 -138 -49 -8 -6 -12 -39 -12 -102 0
-80 3 -96 18 -103 9 -6 79 -24 155 -42 111 -26 140 -30 152 -20 12 10 15 43
15 170 0 87 -3 165 -6 174 -9 24 -45 18 -184 -28z"/>
<path d="M10620 5292 c-97 -60 -126 -82 -128 -101 -3 -19 19 -47 109 -137 74
-75 121 -114 135 -114 17 0 35 26 93 137 39 75 71 144 71 153 0 20 -121 140
-140 139 -8 0 -71 -35 -140 -77z"/>
<path d="M11207 5291 c-32 -33 -57 -68 -56 -78 1 -29 154 -268 174 -271 22 -5
255 224 255 250 0 20 -254 158 -292 158 -17 0 -42 -18 -81 -59z"/>
<path d="M10923 5208 c-15 -19 -75 -272 -71 -299 l3 -24 171 -3 c143 -2 173 0
184 13 10 12 5 39 -30 152 -24 76 -47 146 -52 156 -7 14 -23 17 -102 17 -63 0
-97 -4 -103 -12z"/>
<path d="M8994 3729 c-113 -14 -202 -85 -244 -195 -33 -82 -33 -234 -2 -315
42 -105 104 -165 206 -194 117 -34 259 4 332 89 115 135 107 412 -17 535 -64
64 -166 94 -275 80z"/>
<path d="M4845 3675 c-4 -11 -37 -103 -73 -205 l-68 -185 145 -3 c79 -1 145
-1 147 1 2 2 -30 95 -71 208 -51 139 -76 198 -80 184z"/>
<path d="M6746 3632 c-10 -31 -43 -122 -72 -201 -29 -80 -52 -146 -50 -148 2
-2 68 -2 148 -1 l145 3 -71 197 c-40 108 -74 199 -77 202 -3 3 -14 -20 -23
-52z"/>
<path d="M8837 1328 c-29 -39 -47 -73 -47 -87 0 -17 57 -13 74 5 18 17 23 114
7 114 -6 0 -21 -15 -34 -32z"/>
<path d="M12440 1338 c-20 -21 -60 -90 -60 -103 0 -11 57 -5 74 8 21 15 34
101 18 111 -6 4 -20 -4 -32 -16z"/>
<path d="M10428 1326 c-54 -20 -59 -24 -84 -80 -36 -80 -45 -189 -18 -204 59
-31 139 84 162 232 5 30 6 59 3 64 -3 5 -32 0 -63 -12z"/>
<path d="M11770 1330 c-25 -10 -48 -16 -52 -14 -19 12 -78 -150 -78 -212 0
-107 88 -80 143 44 28 64 53 180 40 192 -4 5 -28 0 -53 -10z"/>
</g>
</svg>
